<svg xmlns="http://www.w3.org/2000/svg" width="327.57" height="391.896" viewBox="0 0 327.57 391.896">
  <g id="design-top" transform="translate(79.938 0.214)">
    <path id="Path_129" data-name="Path 129" d="M0,372.949C16.267,268.058,50.279,232.567,90.206,210.385s63.957-15.9,99.078-60.63,23.291-80.963,41.406-118.3S268.477-5.811,268.477-5.811" transform="translate(226.41 373.283) rotate(180)" fill="none" stroke="#ffda65" stroke-width="1"/>
    <path id="Path_131" data-name="Path 131" d="M0,372.949C16.267,268.058,50.279,232.567,90.206,210.385s63.957-15.9,99.078-60.63,26.547-81.5,44.661-118.837S262.771-6.741,262.771-6.741" transform="translate(213.73 373.283) rotate(180)" fill="none" stroke="#ffda65" stroke-width="1"/>
    <path id="Path_132" data-name="Path 132" d="M0,380.55C16.289,273.521,50.349,237.307,90.33,214.673s64.045-16.221,99.214-61.866,23.323-82.613,41.463-120.714S262.1.407,262.1.407" transform="translate(195.862 380.416) rotate(180)" fill="none" stroke="#ffda65" stroke-width="1"/>
    <path id="Path_133" data-name="Path 133" d="M0,380.55C16.289,273.521,50.349,237.307,90.33,214.673s64.045-16.221,99.214-61.866,23.323-82.613,41.463-120.714S262.1.407,262.1.407" transform="translate(182.389 380.416) rotate(180)" fill="none" stroke="#ffda65" stroke-width="1"/>
    <path id="Path_130" data-name="Path 130" d="M0,380.418c17.168-106.992,44.384-135.1,86.523-157.729s75.548-22.622,112.615-68.251,25.851-88.2,44.97-126.282S291.065-10.9,291.065-10.9" transform="translate(247.139 380.284) rotate(180)" fill="none" stroke="#ffda65" stroke-width="1"/>
  </g>
</svg>
