<svg xmlns="http://www.w3.org/2000/svg" width="53" height="53" viewBox="0 0 53 53">
  <g id="insta" transform="translate(-958 -4277)">
    <g id="Ellipse_21" data-name="Ellipse 21" transform="translate(958 4277)" fill="none" stroke="#fff9e8" stroke-width="1">
      <circle cx="26.5" cy="26.5" r="26.5" stroke="none"/>
      <circle cx="26.5" cy="26.5" r="26" fill="none"/>
    </g>
    <g id="surface7542242" transform="translate(972 4291)">
      <path id="Path_143" data-name="Path 143" d="M7.547,0A7.562,7.562,0,0,0,0,7.547V18.453A7.562,7.562,0,0,0,7.547,26H18.453A7.562,7.562,0,0,0,26,18.453V7.547A7.562,7.562,0,0,0,18.453,0Zm0,2H18.453A5.531,5.531,0,0,1,24,7.547V18.453A5.531,5.531,0,0,1,18.453,24H7.547A5.531,5.531,0,0,1,2,18.453V7.547A5.531,5.531,0,0,1,7.547,2ZM20.5,4A1.5,1.5,0,1,0,22,5.5,1.5,1.5,0,0,0,20.5,4ZM13,6a7,7,0,1,0,7,7A7.014,7.014,0,0,0,13,6Zm0,2a5,5,0,1,1-5,5A4.985,4.985,0,0,1,13,8Zm0,0" fill="#fff9e8"/>
    </g>
  </g>
</svg>
