<svg xmlns="http://www.w3.org/2000/svg" width="53" height="53" viewBox="0 0 53 53">
  <g id="linkedin" transform="translate(-1104 -4277)">
    <g id="Ellipse_21" data-name="Ellipse 21" transform="translate(1104 4277)" fill="none" stroke="#fff9e8" stroke-width="1">
      <circle cx="26.5" cy="26.5" r="26.5" stroke="none"/>
      <circle cx="26.5" cy="26.5" r="26" fill="none"/>
    </g>
    <g id="surface7548290" transform="translate(1116 4289)">
      <path id="Path_149" data-name="Path 149" d="M9,25H4V10H9ZM6.5,8A2.5,2.5,0,1,1,9,5.5,2.5,2.5,0,0,1,6.5,8ZM27,25H22.191V17.7c0-1.738-.031-3.98-2.5-3.98-2.5,0-2.891,1.9-2.891,3.855V25H12V9.988h4.613v2.051h.066A5.081,5.081,0,0,1,21.23,9.617c4.871,0,5.77,3.109,5.77,7.148Zm0,0" fill="#fff9e8"/>
    </g>
  </g>
</svg>
