<svg xmlns="http://www.w3.org/2000/svg" width="53" height="53" viewBox="0 0 53 53">
  <g id="mail" transform="translate(-1031 -4277)">
    <g id="Ellipse_21" data-name="Ellipse 21" transform="translate(1031 4277)" fill="none" stroke="#fff9e8" stroke-width="1">
      <circle cx="26.5" cy="26.5" r="26.5" stroke="none"/>
      <circle cx="26.5" cy="26.5" r="26" fill="none"/>
    </g>
    <g id="surface7546778" transform="translate(1043.27 4287.063)">
      <path id="Path_144" data-name="Path 144" d="M40.586,16.2l-2.793,1.536L35,20.389v9.106h3.91a1.676,1.676,0,0,0,1.676-1.676Zm0,0" transform="translate(-14.125 -3.619)" fill="#fff9e8"/>
      <path id="Path_145" data-name="Path 145" d="M3,16.2l2.018.956,3.568,3.234v9.106H4.676A1.676,1.676,0,0,1,3,27.818Zm0,0" transform="translate(0 -3.619)" fill="#fff9e8"/>
      <path id="Path_146" data-name="Path 146" d="M24.848,11.2,18.7,15.808,12.559,11.2,12,14.439l.559,3.742L18.7,22.79l6.145-4.608.559-3.742Zm0,0" transform="translate(-3.973 -1.412)" fill="#fff9e8"/>
      <path id="Path_147" data-name="Path 147" d="M3,10.4v2.18l5.586,4.189V9.787L6.84,8.48A2.4,2.4,0,0,0,3,10.4Zm0,0" fill="#fff9e8"/>
      <path id="Path_148" data-name="Path 148" d="M40.586,10.4v2.18L35,16.769V9.787L36.746,8.48a2.4,2.4,0,0,1,3.84,1.92Zm0,0" transform="translate(-14.125)" fill="#fff9e8"/>
    </g>
  </g>
</svg>
