<svg xmlns="http://www.w3.org/2000/svg" width="53" height="53" viewBox="0 0 53 53">
  <g id="twitter" transform="translate(-1177 -4277)">
    <g id="Ellipse_21" data-name="Ellipse 21" transform="translate(1177 4277)" fill="none" stroke="#fff9e8" stroke-width="1">
      <circle cx="26.5" cy="26.5" r="26.5" stroke="none"/>
      <circle cx="26.5" cy="26.5" r="26" fill="none"/>
    </g>
    <g id="surface7549050" transform="translate(1186.284 4286.587)">
      <path id="Path_150" data-name="Path 150" d="M29.749,9.462A10.776,10.776,0,0,1,26.7,10.3a5.3,5.3,0,0,0,2.335-2.914,10.687,10.687,0,0,1-3.369,1.275,5.316,5.316,0,0,0-9.173,3.6,5.234,5.234,0,0,0,.139,1.2A15.111,15.111,0,0,1,5.7,7.959a5.2,5.2,0,0,0-.72,2.646,5.25,5.25,0,0,0,2.359,4.378,5.4,5.4,0,0,1-2.4-.656v.06a5.276,5.276,0,0,0,4.254,5.158,5.348,5.348,0,0,1-1.395.187,5.684,5.684,0,0,1-1-.1,5.313,5.313,0,0,0,4.953,3.653A10.726,10.726,0,0,1,5.158,25.54a10.467,10.467,0,0,1-1.263-.074,15.149,15.149,0,0,0,8.132,2.359A14.92,14.92,0,0,0,27.119,12.864c0-.227-.007-.455-.019-.68a10.387,10.387,0,0,0,2.649-2.723" transform="translate(0)" fill="#fff9e8"/>
    </g>
  </g>
</svg>
